<?xml version="1.0" standalone="no"?>
<!DOCTYPE svg PUBLIC "-//W3C//DTD SVG 20010904//EN"
 "http://www.w3.org/TR/2001/REC-SVG-20010904/DTD/svg10.dtd">
<svg version="1.0" xmlns="http://www.w3.org/2000/svg"
 width="250.000000pt" height="400.000000pt" viewBox="0 0 250.000000 400.000000"
 preserveAspectRatio="xMidYMid meet">
<metadata>
Created by potrace 1.16, written by Peter Selinger 2001-2019
</metadata>
<g transform="translate(0.000000,400.000000) scale(0.100000,-0.100000)"
fill="#000000" stroke="none">
<path d="M0 2000 l0 -2000 1250 0 1250 0 0 2000 0 2000 -1250 0 -1250 0 0
-2000z m1356 1200 c23 -12 49 -32 58 -45 20 -30 37 -163 22 -169 -7 -2 -7 -8
2 -17 17 -19 15 -42 -7 -65 -13 -15 -16 -25 -9 -37 6 -12 3 -20 -11 -28 -16
-10 -17 -16 -7 -33 6 -12 16 -24 21 -28 6 -4 0 -8 -11 -8 -28 0 -45 21 -38 46
7 28 -22 52 -44 37 -22 -14 -24 -73 -3 -73 13 -1 12 -4 -4 -16 -15 -11 -17
-17 -7 -23 9 -6 8 -12 -8 -26 -11 -10 -20 -13 -20 -7 0 6 -7 9 -15 6 -8 -4
-12 -10 -9 -15 3 -5 -13 -9 -34 -9 -29 0 -42 5 -47 18 -6 16 -7 16 -16 0 -6
-10 -17 -18 -25 -18 -12 0 -14 8 -10 35 4 26 2 35 -8 35 -8 0 -12 -7 -10 -17
2 -10 -3 -26 -10 -37 -14 -18 -16 -18 -43 2 -31 22 -42 40 -69 114 -9 26 -23
53 -30 59 -24 20 -17 87 11 115 14 14 25 29 25 34 0 6 6 10 14 10 17 0 26 22
26 64 0 37 35 76 90 100 53 23 174 21 226 -4z m-283 -1367 c27 -8 65 -31 86
-52 45 -42 61 -99 61 -211 l0 -70 -120 0 -120 0 -1 68 c0 37 -3 85 -7 107 -6
34 -11 40 -35 43 -42 5 -47 -25 -47 -268 0 -224 6 -270 37 -270 36 0 43 16 49
108 l7 93 116 -3 116 -3 -1 -86 c-2 -104 -19 -146 -74 -184 -60 -42 -107 -54
-207 -55 -139 0 -218 36 -264 120 -18 33 -26 477 -10 532 15 48 54 94 102 118
78 40 210 46 312 13z m467 -312 c0 -270 2 -320 15 -331 8 -7 21 -10 30 -6 13
4 15 52 17 328 l3 323 123 3 122 3 0 -303 c0 -167 -5 -321 -10 -343 -6 -28
-22 -52 -55 -82 -56 -51 -115 -67 -235 -62 -112 5 -188 40 -225 103 l-25 43 0
321 0 322 120 0 120 0 0 -319z m-1073 -773 c29 -28 31 -68 3 -68 -13 0 -24 10
-30 25 -7 17 -17 25 -34 25 -31 0 -36 -15 -36 -105 0 -54 4 -78 16 -89 20 -21
51 -5 60 29 9 35 44 34 44 0 0 -62 -95 -100 -139 -56 -42 42 -42 192 -1 236
30 32 84 34 117 3z m101 -36 c3 -52 3 -52 37 -52 34 0 34 0 37 53 3 44 6 52
23 52 19 0 20 -7 20 -135 0 -132 0 -135 -22 -138 -22 -3 -23 0 -23 62 l0 66
-35 0 -34 0 -3 -62 c-3 -57 -5 -63 -25 -66 -23 -3 -23 -3 -23 131 0 73 3 137
7 141 4 4 14 5 23 4 11 -2 16 -18 18 -56z m299 -77 c18 -71 33 -134 33 -138 0
-5 -10 -7 -22 -5 -15 2 -25 13 -32 36 -8 29 -13 32 -45 32 -33 0 -38 -4 -46
-32 -7 -23 -17 -34 -32 -36 -13 -2 -23 -1 -23 2 0 10 72 260 77 269 3 4 17 7
31 5 24 -3 28 -10 59 -133z m101 123 c5 -7 22 -48 38 -91 l29 -79 5 89 c5 80
7 88 25 88 19 0 20 -8 23 -137 l3 -138 -26 0 c-28 0 -35 12 -79 130 l-25 65 0
-97 c-1 -91 -2 -98 -21 -98 -19 0 -20 7 -20 140 0 130 1 140 19 140 10 0 23
-6 29 -12z m310 -24 c22 -25 24 -35 20 -110 -4 -107 -19 -126 -108 -132 l-60
-4 0 134 c0 74 3 138 8 142 4 5 32 6 62 3 43 -5 60 -12 78 -33z m280 19 c11
-10 23 -28 27 -40 5 -20 3 -23 -19 -23 -16 0 -27 7 -31 20 -8 26 -51 27 -65 1
-12 -24 -13 -121 -1 -154 12 -31 36 -40 56 -21 23 23 20 64 -5 64 -14 0 -20 7
-20 21 0 18 5 20 43 17 l42 -3 3 -64 c3 -68 -7 -92 -32 -72 -10 8 -16 9 -21 1
-13 -21 -73 -11 -93 15 -41 52 -39 189 4 232 28 28 83 31 112 6z m168 6 c12
-20 72 -257 66 -263 -3 -3 -13 -6 -23 -6 -13 0 -20 10 -25 35 -6 33 -9 35 -45
35 -35 0 -39 -3 -47 -32 -6 -23 -15 -34 -30 -36 -13 -2 -22 2 -22 9 0 21 63
243 73 257 12 15 43 16 53 1z m236 -19 c22 -27 23 -59 3 -87 -13 -19 -13 -24
0 -50 8 -15 15 -47 15 -71 0 -39 -2 -43 -22 -40 -19 2 -24 10 -26 48 -4 52
-16 70 -48 70 -21 0 -23 -5 -26 -57 -3 -50 -6 -58 -23 -58 -19 0 -20 8 -23
124 -1 69 0 131 3 139 9 24 125 10 147 -18z m96 -28 c3 -52 3 -52 37 -52 34 0
34 0 37 53 3 44 6 52 23 52 19 0 20 -7 20 -135 0 -128 -1 -135 -20 -135 -18 0
-20 8 -23 63 l-3 62 -34 0 -34 0 -3 -62 c-3 -55 -5 -63 -23 -63 -19 0 -20 8
-23 124 -3 138 0 154 25 149 14 -2 19 -15 21 -56z m-451 -318 c7 -10 13 -26
13 -36 0 -25 -37 -23 -45 3 -11 32 -59 22 -63 -14 -3 -24 2 -29 45 -48 57 -24
73 -42 73 -84 0 -49 -31 -75 -90 -75 -53 0 -80 22 -80 67 0 33 38 31 46 -2 12
-48 74 -40 74 11 0 19 -10 28 -50 45 -76 33 -93 87 -44 136 22 22 32 25 67 20
23 -3 47 -14 54 -23z m-1137 -93 c0 -87 3 -111 16 -122 11 -9 20 -10 32 -2 14
8 18 30 20 122 l3 111 25 0 26 0 -4 -114 c-4 -135 -15 -156 -82 -156 -74 0
-86 24 -86 164 l0 106 25 0 25 0 0 -109z m241 17 l34 -93 3 93 c3 91 3 92 28
92 l25 0 -3 -132 -3 -133 -29 0 c-27 0 -31 5 -62 90 l-32 90 -4 -90 c-3 -85
-4 -90 -25 -93 -23 -3 -23 -3 -23 132 l0 136 29 0 c27 0 30 -5 62 -92z m234
70 c9 -41 35 -169 35 -175 0 -23 12 15 25 78 25 122 23 119 49 119 l23 0 -32
-132 c-30 -127 -33 -133 -58 -136 -32 -4 -31 -8 -66 147 l-28 121 23 0 c16 0
25 -7 29 -22z m295 2 c0 -17 -7 -20 -50 -20 l-50 0 0 -35 c0 -35 0 -35 45 -35
38 0 45 -3 45 -20 0 -17 -7 -20 -45 -20 l-45 0 0 -40 0 -40 50 0 c43 0 50 -3
50 -20 0 -18 -7 -20 -75 -20 l-75 0 0 135 0 135 75 0 c68 0 75 -2 75 -20z
m174 4 c20 -20 21 -88 1 -104 -13 -11 -13 -14 0 -27 8 -8 15 -29 15 -46 0 -18
3 -42 6 -54 5 -20 2 -23 -20 -23 -22 0 -26 4 -27 33 -2 63 -12 82 -44 82 -29
0 -30 -1 -33 -57 -3 -50 -6 -58 -22 -58 -19 0 -20 8 -20 135 l0 135 64 0 c45
0 69 -5 80 -16z m545 -31 c9 -23 19 -44 22 -48 4 -3 15 17 25 45 14 40 22 50
41 50 13 0 23 -2 23 -5 0 -3 -12 -34 -27 -68 -16 -36 -29 -89 -33 -127 -4 -58
-7 -65 -27 -68 -21 -3 -23 0 -23 52 0 37 -9 75 -27 118 -28 66 -43 91 -43 70
0 -7 -13 -12 -30 -12 l-30 0 0 -116 c0 -114 0 -115 -22 -112 -22 3 -23 7 -26
116 l-3 112 -29 0 c-23 0 -30 4 -30 20 0 20 5 21 111 18 l111 -3 17 -42z"/>
<path d="M1166 3165 c-15 -8 -32 -15 -38 -15 -5 0 -22 -9 -37 -21 -20 -14 -27
-27 -24 -40 5 -17 7 -17 17 -4 14 19 69 23 90 6 13 -11 18 -10 31 3 21 21 42
21 25 1 -16 -20 0 -19 28 1 12 8 20 20 16 25 -3 6 9 9 30 7 19 -1 38 1 42 5 4
4 2 7 -4 7 -6 0 -9 6 -6 14 4 9 -8 15 -42 20 -70 9 -96 7 -128 -9z"/>
</g>
</svg>
